<?xml version="1.0" encoding="UTF-8"?>
<svg id="Layer_2" data-name="Layer 2" xmlns="http://www.w3.org/2000/svg" viewBox="0 0 540.06 540.06">
  <defs>
    <style>
      .cls-1 {
        fill: #f4ede1;
      }

      .cls-2 {
        fill: #161614;
      }
    </style>
  </defs>
  <g id="Layer_1-2" data-name="Layer 1">
    <rect class="cls-1" width="540.06" height="540.06" rx="63.92" ry="63.92"/>
    <g>
      <path class="cls-2" d="M334.31,226.4c13.28-1.82,23.39,3.42,33.13,11.73,20.36,17.37,63.43,71.19,34.58,95.7-34.15,29.01-87.52-46.88-89.75-76.27-1.1-14.51,6.66-29.05,22.04-31.16Z"/>
      <g>
        <path class="cls-2" d="M196.88,226.39c26-4.07,36.2,19.65,29.82,41.73-6.52,22.56-33.32,60.27-55.54,69.16-22.09,8.84-44.84-4.74-42.28-29.57,2.33-22.67,44.83-77.7,68.01-81.32Z"/>
        <path class="cls-2" d="M261.96,396.43c-8.25-6.21-17.19-11.63-25.41-17.87-7.09-5.37-14.95-9.32-10.67-19.91s21.68-8.1,30.42-8.5c13.53-.62,27.65-1.06,41.26-.02,7.77.59,18.23,3.22,17.92,13.07-.38,12.24-27.73,26.31-36.58,33.38-8.7,15.08,6.82,24.6,20.28,25.81,13.29,1.2,14.6-2.65,24.8-4.57,9.16-1.72,10.37,5.17,3.76,10.92-10.49,9.13-27.22,8.81-40.12,6-13.81-3-12.56-7.61-28.76-2.6-13.83,4.28-19.62,6.59-34.92,2.73-5.22-1.32-22.37-9.64-13-15.7,3.92-2.54,20.71,4.09,27.06,4.09,14.33,0,32.45-10.33,23.97-26.82Z"/>
      </g>
      <g>
        <path class="cls-2" d="M104.43,181.43c-27.45-26.41.49-77.98,36.66-78.2,20.37-.12,42.78,17.5,29.77,38.34l-45.63,44.12c-7.52,3.76-15.05,1.25-20.79-4.27Z"/>
        <path class="cls-2" d="M397.91,103.26c33.39-.55,60.46,39.84,43.67,69.96-5.14,9.21-16.52,19.55-27.24,11.67-15.25-11.22-29.99-33.03-45.3-45.25-10.6-18.91,10.87-36.08,28.87-36.37Z"/>
      </g>
    </g>
  </g>
</svg>